<svg width="375" height="48" viewBox="0 0 375 48" fill="none" xmlns="http://www.w3.org/2000/svg">
<path fill-rule="evenodd" clip-rule="evenodd" d="M324.293 17.2929C324.683 16.9024 325.317 16.9024 325.707 17.2929L331 22.5858L336.293 17.2929C336.683 16.9024 337.317 16.9024 337.707 17.2929C338.098 17.6834 338.098 18.3166 337.707 18.7071L332.414 24L337.707 29.2929C338.098 29.6834 338.098 30.3166 337.707 30.7071C337.317 31.0976 336.683 31.0976 336.293 30.7071L331 25.4142L325.707 30.7071C325.317 31.0976 324.683 31.0976 324.293 30.7071C323.902 30.3166 323.902 29.6834 324.293 29.2929L329.586 24L324.293 18.7071C323.902 18.3166 323.902 17.6834 324.293 17.2929Z" fill="white"/>
</svg>
